# xmcd
#
# Track frame offsets: 
#        182
#        48775
#        83825
#        104970
#        155370
#        158865
#        203062
#        225550
#        253522
#        267532
#
# Disc length: 3700 seconds
#
# Revision: 1
# Processed by: cddbd v1.5.2PL0 Copyright (c) Steve Scherf et al.
# Submitted via: ExactAudioCopy v0.99pb5
#
DISCID=800e720a
DTITLE=Thôt - Thôt
DYEAR=2000
DGENRE=Jazz
TTITLE0=Toum-Té
TTITLE1=Essai #1 - Essai #3
TTITLE2=Clin d'oeil (à Heptases)
TTITLE3=Enaïd
TTITLE4=[?t?rmdzo] (intermezzo)
TTITLE5=Scabellum
TTITLE6=? (P.I.)
TTITLE7=?! (P.I.P.E.)
TTITLE8=Épilogue
TTITLE9=Hélène A.2
EXTD=YEAR: 2000
EXTT0=
EXTT1=
EXTT2=
EXTT3=
EXTT4=
EXTT5=
EXTT6=
EXTT7=
EXTT8=
EXTT9=
PLAYORDER=
